PathFileType	4	(X/Y/Z)	 s04c0103.trc
DataRate	CameraRate	NumFrames	NumMarkers	Units	OrigDataRate	OrigDataStartFrame	OrigNumFrames
200	200	5	50	mm	200	251	2000
Frame#	Time	racr			lacr			c7			jug			rlel			rdr			llel			ldr			s2			lic			ric			lasi			rasi			rpsi			lpsi			rgt			lgt			rth1			rth2			rth3			rth4			rlfc			rmfc			rsh1			rsh2			rsh3			rsh4			rlmal			rmmal			rcal			rtoe			rmt5			lth1			lth2			lth4			lth3			llfc			lmfc			lsh1			lsh2			lsh3			lsh4			llmal			lmmal			lcal			ltoe			lmt5			SBIKE			LBIKE			RBIKE			
		X1	Y1	Z1	X2	Y2	Z2	X3	Y3	Z3	X4	Y4	Z4	X5	Y5	Z5	X6	Y6	Z6	X7	Y7	Z7	X8	Y8	Z8	X9	Y9	Z9	X10	Y10	Z10	X11	Y11	Z11	X12	Y12	Z12	X13	Y13	Z13	X14	Y14	Z14	X15	Y15	Z15	X16	Y16	Z16	X17	Y17	Z17	X18	Y18	Z18	X19	Y19	Z19	X20	Y20	Z20	X21	Y21	Z21	X22	Y22	Z22	X23	Y23	Z23	X24	Y24	Z24	X25	Y25	Z25	X26	Y26	Z26	X27	Y27	Z27	X28	Y28	Z28	X29	Y29	Z29	X30	Y30	Z30	X31	Y31	Z31	X32	Y32	Z32	X33	Y33	Z33	X34	Y34	Z34	X35	Y35	Z35	X36	Y36	Z36	X37	Y37	Z37	X38	Y38	Z38	X39	Y39	Z39	X40	Y40	Z40	X41	Y41	Z41	X42	Y42	Z42	X43	Y43	Z43	X44	Y44	Z44	X45	Y45	Z45	X46	Y46	Z46	X47	Y47	Z47	X48	Y48	Z48	X49	Y49	Z49	X50	Y50	Z50	
251	1.2550	504.443488	1437.225279	-121.434470	528.609608	1421.083498	-394.477465	501.014678	1461.901124	-269.159265	497.770015	1313.875489	-259.657750	505.269848	1126.877254	-13.500816	696.724645	907.607416	-88.623000	517.816164	1138.861482	-506.356775	706.545710	912.784339	-438.478666	-50.491148	1184.064354	-279.735017	113.155288	1184.621332	-422.274945	108.754667	1167.358009	-110.262553	NaN	NaN	NaN	146.060267	1108.021950	-150.856891	-15.156126	1220.443319	-231.486246	-17.631799	1230.423864	-306.265533	48.879360	1105.179745	-99.258159	74.012964	1126.668978	-470.339615	126.840069	955.967575	-80.106472	180.817645	886.900010	-92.861372	195.991168	802.898290	-100.794540	209.780160	902.590741	-111.128468	240.213967	666.912479	-130.606295	211.010750	649.821709	-240.997933	176.026729	557.569405	-102.521147	158.442807	468.393904	-115.563396	98.606427	405.871261	-118.859274	185.916940	458.294087	-141.354762	42.712049	262.821884	-125.689865	61.451783	267.849106	-212.473709	-31.285821	233.641426	-166.581239	266.294674	193.228510	-152.451714	196.640654	174.706893	-98.571672	135.988009	1076.524522	-474.077248	221.944978	1068.914475	-474.557186	234.022569	1098.961945	-456.464913	295.013478	1018.219702	-484.142349	432.196025	935.036830	-460.496304	464.697553	915.574442	-350.971351	389.967864	828.730099	-479.192138	363.466864	748.433017	-455.658780	298.859138	687.489479	-451.249662	387.297022	738.807975	-426.127367	215.529938	568.520982	-436.976263	212.746637	574.817222	-348.819284	131.243395	554.874560	-393.720189	429.022384	507.405861	-402.135471	354.356294	478.765191	-463.211038	-177.137476	934.523834	-280.156597	-3.284419	85.716753	-484.792842	-14.995230	80.387753	-84.251899	
252	1.2600	504.445070	1437.207416	-121.436731	528.636927	1421.074351	-394.443309	501.053434	1461.874618	-269.135416	497.765954	1313.845603	-259.610460	505.315632	1126.888662	-13.458698	696.721299	907.605949	-88.633764	517.827050	1138.865007	-506.328335	706.567148	912.802824	-438.480820	-50.510518	1184.064754	-279.747212	113.185309	1184.618713	-422.270272	108.721595	1167.340849	-110.239197	NaN	NaN	NaN	146.070343	1108.011484	-150.842654	-15.161717	1220.418734	-231.470806	-17.651752	1230.420288	-306.257281	48.855725	1105.165234	-99.239102	74.004492	1126.664005	-470.335083	126.805850	955.954102	-80.075665	180.822033	886.853527	-92.838195	195.978809	802.874690	-100.792187	209.746059	902.659287	-111.049389	240.207047	666.903354	-130.592754	210.996877	649.822835	-240.997862	176.024893	557.563004	-102.529413	158.425023	468.390438	-115.559282	98.597276	405.848020	-118.861254	185.947585	458.304510	-141.346644	42.735864	262.789291	-125.694459	61.443334	267.832141	-212.474682	-31.264975	233.612657	-166.587467	266.308489	193.239548	-152.436158	196.671191	174.710082	-98.564439	135.969702	1076.513252	-474.069970	221.929656	1068.910501	-474.567395	234.003999	1098.965448	-456.467567	294.998044	1018.210549	-484.156604	432.197865	935.044802	-460.507666	464.716366	915.585876	-350.989574	389.960254	828.757303	-479.213306	363.452534	748.432719	-455.681035	298.849148	687.496911	-451.260152	387.278840	738.826977	-426.134367	215.515500	568.530341	-436.966466	212.740341	574.847503	-348.821744	131.222110	554.894354	-393.709839	429.002437	507.414201	-402.139815	354.326412	478.762037	-463.203574	-177.134422	934.509111	-280.144864	-3.291799	85.721687	-484.774266	-14.996465	80.372845	-84.257952	
253	1.2650	504.438426	1437.176652	-121.402878	528.666857	1421.073464	-394.412903	501.056092	1461.851874	-269.099577	497.785427	1313.841914	-259.600085	505.295911	1126.849672	-13.446261	696.732759	907.626305	-88.605214	517.815666	1138.847140	-506.267795	706.563926	912.806412	-438.475060	-50.512516	1184.053372	-279.738352	113.162286	1184.595337	-422.255321	108.706787	1167.355195	-110.210785	NaN	NaN	NaN	146.044675	1107.987974	-150.823871	-15.187900	1220.389294	-231.454081	-17.651704	1230.420368	-306.257618	48.854351	1105.159375	-99.233679	74.001606	1126.653003	-470.324493	126.799275	955.918033	-80.071512	180.806403	886.851605	-92.820829	195.962335	802.861491	-100.776116	209.746256	902.599897	-111.091347	240.183272	666.900343	-130.602290	210.980503	649.816354	-241.003096	176.005609	557.562243	-102.531331	158.436750	468.373661	-115.580035	98.630055	405.831824	-118.861386	185.931559	458.294460	-141.342745	42.747729	262.761092	-125.695907	61.476050	267.801805	-212.486747	-31.227074	233.572498	-166.583943	266.344638	193.212592	-152.450236	196.682817	174.702974	-98.563804	135.956507	1076.517525	-474.075723	221.921270	1068.913245	-474.568695	234.010584	1098.973220	-456.464117	294.993303	1018.211850	-484.171538	432.193364	935.049180	-460.528311	464.707678	915.593589	-351.031941	389.938906	828.766386	-479.248768	363.449075	748.461243	-455.703506	298.825070	687.522936	-451.269646	387.275065	738.830597	-426.149537	215.495240	568.554325	-436.973933	212.703069	574.900367	-348.836518	131.198121	554.925604	-393.715111	428.966495	507.416746	-402.148128	354.303377	478.785689	-463.212898	-177.132486	934.509905	-280.151473	-3.292853	85.735461	-484.787177	-14.986612	80.367333	-84.249723	
254	1.2700	504.439452	1437.143245	-121.380347	528.669817	1421.058571	-394.362390	501.065374	1461.831837	-269.070419	497.784435	1313.786038	-259.585907	505.255388	1126.837771	-13.428204	696.720904	907.616659	-88.607965	517.804615	1138.838106	-506.233229	706.556573	912.809378	-438.469219	-50.536199	1184.044303	-279.728736	113.153381	1184.588612	-422.242077	108.671481	1167.326530	-110.202348	NaN	NaN	NaN	146.047179	1108.002360	-150.771614	-15.214348	1220.393914	-231.450993	-17.680774	1230.412229	-306.231835	48.842999	1105.135430	-99.215631	73.997291	1126.635285	-470.311389	126.799379	955.927096	-80.050924	180.788238	886.822397	-92.814514	195.929940	802.851689	-100.777848	209.705510	902.640995	-111.033876	240.182892	666.898642	-130.612894	210.979831	649.814578	-241.001249	176.012728	557.551667	-102.549525	158.445461	468.357620	-115.579495	98.629625	405.810847	-118.874557	185.940587	458.271888	-141.342734	42.786987	262.725462	-125.691471	61.521450	267.783035	-212.485423	-31.192531	233.558090	-166.594215	266.368101	193.209230	-152.441802	196.728641	174.677213	-98.568805	135.949742	1076.516064	-474.071568	221.921773	1068.914745	-474.552431	233.989326	1098.977995	-456.475374	294.982866	1018.233684	-484.184052	432.183338	935.070953	-460.556228	464.694677	915.603654	-351.045440	389.936133	828.787208	-479.262057	363.437293	748.471849	-455.708455	298.815219	687.531172	-451.286681	387.277891	738.845640	-426.177466	215.476818	568.587289	-436.964139	212.675729	574.908654	-348.835231	131.172846	554.967643	-393.720823	428.940263	507.432607	-402.147551	354.272752	478.795638	-463.218578	-177.134049	934.516312	-280.160943	-3.290997	85.720990	-484.776971	-14.985850	80.369007	-84.240098	
255	1.2750	504.433399	1437.101442	-121.381215	528.690600	1421.026502	-394.344037	501.073258	1461.796536	-269.063455	497.769075	1313.749072	-259.576554	505.213492	1126.797330	-13.412176	696.719453	907.619600	-88.635952	517.776749	1138.826101	-506.192507	706.544165	912.798623	-438.458403	-50.537318	1184.035654	-279.727280	113.144672	1184.573806	-422.229495	108.682733	1167.315318	-110.185604	NaN	NaN	NaN	146.019738	1107.979237	-150.798941	-15.209423	1220.349024	-231.439919	-17.702321	1230.406596	-306.220300	48.827930	1105.128119	-99.203306	73.988383	1126.632197	-470.310368	126.768768	955.903526	-80.048059	180.776254	886.811901	-92.810406	195.926616	802.837791	-100.782222	209.723299	902.558530	-111.066008	240.171798	666.891236	-130.614095	210.975618	649.818225	-241.021819	176.012661	557.553675	-102.555097	158.445775	468.349047	-115.580854	98.657387	405.802848	-118.876150	185.968399	458.317915	-141.344086	42.844217	262.689199	-125.693302	61.562151	267.760699	-212.477578	-31.154265	233.527139	-166.593276	266.399595	193.182031	-152.435639	196.760817	174.670896	-98.551750	135.947538	1076.523599	-474.071953	221.919975	1068.924876	-474.569987	233.990334	1098.972106	-456.464458	294.979939	1018.237014	-484.187934	432.190024	935.080224	-460.564515	464.708498	915.621264	-351.073560	389.938828	828.792926	-479.278346	363.420460	748.485266	-455.730239	298.804429	687.554741	-451.284479	387.249446	738.862688	-426.198689	215.440995	568.630391	-436.973044	212.667529	574.949182	-348.835059	131.150604	554.988719	-393.729303	428.905849	507.421615	-402.138888	354.250764	478.803650	-463.208441	-177.126347	934.504186	-280.151148	-3.287795	85.732198	-484.787153	-15.000916	80.376199	-84.253695	
